<mxfile host="app.diagrams.net" modified="2023-07-31T05:47:17.648Z" agent="Mozilla/5.0 (Macintosh; Intel Mac OS X 10_15_7) AppleWebKit/537.36 (KHTML, like Gecko) Chrome/115.0.0.0 Safari/537.36" version="21.6.6" etag="iY5SsjNqAU8gpOnmsYCd" type="github">
  <diagram name="第 1 页" id="VIP1HnOEF6QvUyXcdguw">
    <mxGraphModel>
      <root>
        <mxCell id="0" />
        <mxCell id="1" parent="0" />
      </root>
    </mxGraphModel>
  </diagram>
</mxfile>
